<svg width="370" height="200" viewBox="0 0 370 200" fill="none" xmlns="http://www.w3.org/2000/svg">
<rect width="370" height="200" rx="4" fill="#0080FF"/>
<path fill-rule="evenodd" clip-rule="evenodd" d="M184.747 133.084V120.094C198.615 120.094 209.276 106.467 203.986 91.9628C202.062 86.6233 197.733 82.3199 192.363 80.4073C177.773 75.1475 164.066 85.8264 164.066 99.5336V99.5336H151C151 77.618 172.323 60.484 195.409 67.6564C205.509 70.7644 213.525 78.8134 216.731 88.8547C223.946 111.886 206.791 133.084 184.747 133.084V133.084Z" fill="white"/>
<path fill-rule="evenodd" clip-rule="evenodd" d="M184.746 120.174H171.76V107.264V107.264H184.746V107.264V120.174Z" fill="white"/>
<path fill-rule="evenodd" clip-rule="evenodd" d="M171.759 130.136H161.739V130.136V120.174H171.759V130.136V130.136Z" fill="white"/>
<path fill-rule="evenodd" clip-rule="evenodd" d="M161.744 120.174H153.327V120.174V111.886V111.886H161.663V111.886V120.174H161.744Z" fill="white"/>
</svg>
